<svg width="24" height="24" viewBox="0 0 24 24" fill="none" xmlns="http://www.w3.org/2000/svg">
<path d="M2 22L7.42969 20.2687C8.88802 21.0698 10.5286 21.4832 12.1823 21.4832C17.599 21.4832 22 17.1163 22 11.7416C22 6.36692 17.599 2 12.1823 2C6.76563 2 2.36458 6.36692 2.36458 11.7416C2.36458 13.5116 2.84635 15.2558 3.77083 16.7674L2 22ZM12.1823 19.5C10.5938 19.5 9.32812 18.8656 8 18L5 19L6 16.5C4.98438 15.1176 4.5 13.4522 4.5 11.7468C4.5 7.27653 7.67708 4 12.1823 4C16.6875 4 20 7.27132 20 11.7416C20 16.2119 16.6875 19.5 12.1823 19.5ZM14.8125 16.6253C15.5547 16.6253 16.7656 16.1602 17.0651 15.4367C17.1823 15.1395 17.2865 14.7778 17.2865 14.4548C17.2865 14.4031 17.2865 14.3256 17.2604 14.261C17.1693 14.1059 15.0469 13.0078 14.8255 13.0078C14.6901 13.0078 14.5047 13.2083 14.3059 13.4489L14.0024 13.8198C13.7995 14.0605 13.6016 14.261 13.4453 14.261C13.3411 14.261 13.25 14.2222 13.1589 14.1705C12.4297 13.8088 11.7917 13.4341 11.1927 12.8656C10.6979 12.4005 10.151 11.7028 9.86458 11.0956C9.82552 11.031 9.79948 10.9664 9.79948 10.9018C9.79948 10.6047 10.6979 10.0491 10.6979 9.55814C10.6979 9.42894 10.0339 7.67183 9.94271 7.4522C9.8125 7.11628 9.7474 7.01292 9.39583 7.01292C9.22656 7.01292 9.07031 6.97416 8.91406 6.97416C8.64062 6.97416 8.43229 7.07752 8.23698 7.2584C7.61198 7.83979 7.29948 8.44703 7.27344 9.29974V9.4031C7.26042 10.2946 7.70313 11.186 8.19792 11.9096C9.31771 13.5504 10.4766 14.9845 12.3385 15.8243C12.8984 16.0827 14.1875 16.6253 14.8125 16.6253Z" fill="#151515"/>
</svg>
